<svg xmlns="http://www.w3.org/2000/svg" width="600" height="400" viewBox="0 0 600 400">
  <defs>
    <linearGradient id="blueGradient" x1="0" y1="0" x2="0" y2="1">
      <stop offset="0%" stop-color="#1a2236"/>
      <stop offset="100%" stop-color="#23406e"/>
    </linearGradient>
    <filter id="shadow" x="-20%" y="-20%" width="140%" height="140%">
      <feDropShadow dx="0" dy="4" stdDeviation="6" flood-color="#222" flood-opacity="0.25"/>
    </filter>
  </defs>
  <g filter="url(#shadow)">
    <!-- Clean 'd' -->
    <path d="M80 320 Q80 160 200 160 Q320 160 320 320 L320 320 Q320 160 440 160 Q560 160 560 320 Q560 380 480 380 Q400 380 400 320 Q400 380 320 380 Q240 380 240 320 Q240 380 160 380 Q80 380 80 320 Z" fill="url(#blueGradient)" stroke="#fff" stroke-width="12"/>
    <!-- Left circle for 'd' -->
    <circle cx="160" cy="260" r="40" fill="black" stroke="none"/>
    <!-- Clean 'w' -->
    <rect x="320" y="160" width="80" height="160" rx="20" fill="url(#blueGradient)" stroke="#fff" stroke-width="12"/>
    <rect x="400" y="160" width="80" height="120" rx="20" fill="url(#blueGradient)" stroke="#fff" stroke-width="12"/>
  </g>
</svg>
